<?xml version="1.0" encoding="UTF-8"?>
<svg xmlns="http://www.w3.org/2000/svg" viewBox="0 0 200 200" role="img">
  <defs>
    <radialGradient id="bg" cx="50%" cy="50%" r="55%">
      <stop offset="0%" stop-color="hsl(308,45%,12%)"/>
      <stop offset="100%" stop-color="hsl(308,55%,4%)"/>
    </radialGradient>
    <filter id="glow"><feGaussianBlur stdDeviation="2"/></filter>
  </defs>
  <rect width="200" height="200" fill="url(#bg)"/>
  <g filter="url(#glow)" opacity="0.55"><circle cx="100" cy="100" r="30" fill="none" stroke="#06d6a0" stroke-width="0.6" opacity="0.55"/><circle cx="100" cy="100" r="48" fill="none" stroke="#06d6a0" stroke-width="0.6" opacity="0.45"/><circle cx="100" cy="100" r="66" fill="none" stroke="#06d6a0" stroke-width="0.6" opacity="0.35"/><circle cx="100" cy="100" r="84" fill="none" stroke="#06d6a0" stroke-width="0.6" opacity="0.25"/><circle cx="100" cy="100" r="102" fill="none" stroke="#06d6a0" stroke-width="0.6" opacity="0.15"/></g>
  <polygon points="154.9,97.1 136.5,141.1 90.6,154.2 51.8,126.4 49.3,78.8 85.0,47.1 132.0,55.3" fill="none" stroke="#118ab2" stroke-width="2.2" opacity="0.85"/>
  <polygon points="154.9,97.1 136.5,141.1 90.6,154.2 51.8,126.4 49.3,78.8 85.0,47.1 132.0,55.3" fill="#0a5d7a" opacity="0.18"/>
  <circle cx="100" cy="100" r="6" fill="#06d6a0"/><circle cx="100" cy="100" r="14" fill="none" stroke="#06d6a0" stroke-width="1.2" opacity="0.8"/>
  <g><circle cx="40.3" cy="106.3" r="2" fill="#06d6a0" opacity="0.7"/><circle cx="52.6" cy="52.6" r="2" fill="#06d6a0" opacity="0.7"/><circle cx="107.7" cy="26.4" r="2" fill="#06d6a0" opacity="0.7"/><circle cx="167.9" cy="55.9" r="2" fill="#06d6a0" opacity="0.7"/><circle cx="183.7" cy="127.2" r="2" fill="#06d6a0" opacity="0.7"/><circle cx="123.3" cy="160.7" r="2" fill="#06d6a0" opacity="0.7"/><circle cx="64.0" cy="162.4" r="2" fill="#06d6a0" opacity="0.7"/></g>
</svg>
