<?xml version="1.0" encoding="UTF-8"?>
<svg xmlns="http://www.w3.org/2000/svg" viewBox="0 0 200 200" role="img">
  <defs>
    <radialGradient id="bg" cx="50%" cy="50%" r="55%">
      <stop offset="0%" stop-color="hsl(118,45%,12%)"/>
      <stop offset="100%" stop-color="hsl(118,55%,4%)"/>
    </radialGradient>
    <filter id="glow"><feGaussianBlur stdDeviation="2"/></filter>
  </defs>
  <rect width="200" height="200" fill="url(#bg)"/>
  <g filter="url(#glow)" opacity="0.55"><circle cx="100" cy="100" r="30" fill="none" stroke="#3a86ff" stroke-width="0.6" opacity="0.55"/><circle cx="100" cy="100" r="48" fill="none" stroke="#3a86ff" stroke-width="0.6" opacity="0.45"/><circle cx="100" cy="100" r="66" fill="none" stroke="#3a86ff" stroke-width="0.6" opacity="0.35"/><circle cx="100" cy="100" r="84" fill="none" stroke="#3a86ff" stroke-width="0.6" opacity="0.25"/></g>
  <polygon points="140.9,136.8 96.7,154.9 55.0,131.7 47.2,84.6 79.1,49.1 126.8,52.0 154.3,91.0" fill="none" stroke="#7209b7" stroke-width="2.2" opacity="0.85"/>
  <polygon points="140.9,136.8 96.7,154.9 55.0,131.7 47.2,84.6 79.1,49.1 126.8,52.0 154.3,91.0" fill="#480475" opacity="0.18"/>
  <rect x="90" y="90" width="20" height="20" fill="#3a86ff" transform="rotate(45 100 100)"/>
  <g><circle cx="93.7" cy="40.3" r="2" fill="#3a86ff" opacity="0.7"/><circle cx="147.4" cy="52.6" r="2" fill="#3a86ff" opacity="0.7"/><circle cx="173.6" cy="107.7" r="2" fill="#3a86ff" opacity="0.7"/><circle cx="144.1" cy="167.9" r="2" fill="#3a86ff" opacity="0.7"/><circle cx="72.8" cy="183.7" r="2" fill="#3a86ff" opacity="0.7"/><circle cx="39.3" cy="123.3" r="2" fill="#3a86ff" opacity="0.7"/><circle cx="37.6" cy="64.0" r="2" fill="#3a86ff" opacity="0.7"/></g>
</svg>
